<?xml version="1.0" encoding="utf-8"?>
<!-- Generator: Adobe Illustrator 23.1.0, SVG Export Plug-In . SVG Version: 6.00 Build 0)  -->
<svg version="1.1" xmlns="http://www.w3.org/2000/svg" xmlns:xlink="http://www.w3.org/1999/xlink" x="0px" y="0px"
	 viewBox="0 0 32 32" style="enable-background:new 0 0 32 32;" xml:space="preserve">
<style type="text/css">
	.st0{display:none;}
	.st1{display:inline;}
	.st2{fill:none;stroke:#000000;stroke-width:2;stroke-linecap:round;stroke-linejoin:round;stroke-miterlimit:10;}
</style>
<g id="Lager_1" class="st0">
	<g id="Icons" class="st1">
		<polyline class="st2" points="11,31 11,10 21,10 21,31 		"/>
		<polyline class="st2" points="21,31 21,16 30,16 30,31 		"/>
		<polyline class="st2" points="2,31 2,21 11,21 11,31 		"/>
		<rect x="12" y="7" class="st2" width="8" height="3"/>
		<rect x="14" y="4" class="st2" width="4" height="3"/>
		<line class="st2" x1="16" y1="1" x2="16" y2="4"/>
		<line class="st2" x1="14" y1="14" x2="18" y2="14"/>
		<line class="st2" x1="3" y1="25" x2="7" y2="25"/>
		<line class="st2" x1="3" y1="29" x2="7" y2="29"/>
		<line class="st2" x1="14" y1="18" x2="18" y2="18"/>
		<line class="st2" x1="14" y1="22" x2="18" y2="22"/>
		<line class="st2" x1="14" y1="26" x2="18" y2="26"/>
		<line class="st2" x1="14" y1="30" x2="18" y2="30"/>
		<line class="st2" x1="24" y1="20" x2="24" y2="21"/>
		<line class="st2" x1="27" y1="20" x2="27" y2="21"/>
		<line class="st2" x1="24" y1="24" x2="24" y2="25"/>
		<line class="st2" x1="27" y1="24" x2="27" y2="25"/>
		<line class="st2" x1="24" y1="28" x2="24" y2="29"/>
		<line class="st2" x1="27" y1="28" x2="27" y2="29"/>
	</g>
</g>
<g id="Lager_2">
	<path d="M20.5,9h-9.1C11.2,9,11,8.8,11,8.5V6.4c0-0.2,0.2-0.4,0.4-0.4h9.1c0.2,0,0.4,0.2,0.4,0.4v2.2C21,8.8,20.8,9,20.5,9z"/>
	<path d="M18.6,5.8h-5.1c-0.2,0-0.4-0.2-0.4-0.4V3.4c0-0.2,0.2-0.4,0.4-0.4h5.1c0.2,0,0.4,0.2,0.4,0.4v2.1C19,5.7,18.8,5.8,18.6,5.8
		z"/>
	<path d="M16.5,2.8h-1c-0.2,0-0.4-0.2-0.4-0.4V0.4c0-0.2,0.2-0.4,0.4-0.4h1c0.2,0,0.4,0.2,0.4,0.4v1.9C16.9,2.6,16.7,2.8,16.5,2.8z"
		/>
	<path d="M9.2,31.8H1.6c-0.3,0-0.5-0.2-0.5-0.5V20.3c0-0.3,0.2-0.5,0.5-0.5h7.7c0.3,0,0.5,0.2,0.5,0.5v11.1
		C9.7,31.6,9.5,31.8,9.2,31.8z M7.1,22.1H3.7c-0.3,0-0.5,0.2-0.5,0.5v0.7c0,0.3,0.2,0.5,0.5,0.5h3.5c0.3,0,0.5-0.2,0.5-0.5v-0.7
		C7.6,22.3,7.4,22.1,7.1,22.1z M7.1,24.8H3.7c-0.3,0-0.5,0.2-0.5,0.5v0.7c0,0.3,0.2,0.5,0.5,0.5h3.5c0.3,0,0.5-0.2,0.5-0.5v-0.7
		C7.6,25,7.4,24.8,7.1,24.8z M7.1,27.4H3.7c-0.3,0-0.5,0.2-0.5,0.5v0.7c0,0.3,0.2,0.5,0.5,0.5h3.5c0.3,0,0.5-0.2,0.5-0.5v-0.7
		C7.6,27.6,7.4,27.4,7.1,27.4z"/>
	<path d="M21.4,31.8H10.6c-0.3,0-0.5-0.2-0.5-0.5V9.6c0-0.3,0.2-0.5,0.5-0.5h10.8c0.3,0,0.5,0.2,0.5,0.5v21.7
		C21.9,31.6,21.7,31.8,21.4,31.8z M16.4,11H13c-0.3,0-0.5,0.2-0.5,0.5v0.6c0,0.3,0.2,0.5,0.5,0.5h3.4c0.3,0,0.5-0.2,0.5-0.5v-0.6
		C16.9,11.2,16.7,11,16.4,11z M16.4,13.7H13c-0.3,0-0.5,0.2-0.5,0.5v0.6c0,0.3,0.2,0.5,0.5,0.5h3.4c0.3,0,0.5-0.2,0.5-0.5v-0.6
		C16.9,13.9,16.7,13.7,16.4,13.7z M16.4,16.3H13c-0.3,0-0.5,0.2-0.5,0.5v0.6c0,0.3,0.2,0.5,0.5,0.5h3.4c0.3,0,0.5-0.2,0.5-0.5v-0.6
		C16.9,16.6,16.7,16.3,16.4,16.3z M16.4,19H13c-0.3,0-0.5,0.2-0.5,0.5v0.6c0,0.3,0.2,0.5,0.5,0.5h3.4c0.3,0,0.5-0.2,0.5-0.5v-0.6
		C16.9,19.2,16.7,19,16.4,19z M16.4,21.7H13c-0.3,0-0.5,0.2-0.5,0.5v0.6c0,0.3,0.2,0.5,0.5,0.5h3.4c0.3,0,0.5-0.2,0.5-0.5v-0.6
		C16.9,21.9,16.7,21.7,16.4,21.7z M16.4,24.3H13c-0.3,0-0.5,0.2-0.5,0.5v0.6c0,0.3,0.2,0.5,0.5,0.5h3.4c0.3,0,0.5-0.2,0.5-0.5v-0.6
		C16.9,24.6,16.7,24.3,16.4,24.3z M16.4,27H13c-0.3,0-0.5,0.2-0.5,0.5v0.6c0,0.3,0.2,0.5,0.5,0.5h3.4c0.3,0,0.5-0.2,0.5-0.5v-0.6
		C16.9,27.2,16.7,27,16.4,27z"/>
	<path d="M30.4,31.8h-7.6c-0.2,0-0.4-0.2-0.4-0.4V15.2c0-0.2,0.2-0.4,0.4-0.4h7.6c0.2,0,0.4,0.2,0.4,0.4v16.1
		C30.8,31.6,30.6,31.8,30.4,31.8z M25.5,17.1h-0.9c-0.2,0-0.4,0.2-0.4,0.4v1.5c0,0.2,0.2,0.4,0.4,0.4h0.9c0.2,0,0.4-0.2,0.4-0.4
		v-1.5C25.9,17.3,25.8,17.1,25.5,17.1z M28.4,17.1h-0.9c-0.2,0-0.4,0.2-0.4,0.4v1.5c0,0.2,0.2,0.4,0.4,0.4h0.9
		c0.2,0,0.4-0.2,0.4-0.4v-1.5C28.9,17.3,28.7,17.1,28.4,17.1z M25.5,20.5h-0.9c-0.2,0-0.4,0.2-0.4,0.4v1.5c0,0.2,0.2,0.4,0.4,0.4
		h0.9c0.2,0,0.4-0.2,0.4-0.4v-1.5C26,20.7,25.8,20.5,25.5,20.5z M28.5,20.5h-0.9c-0.2,0-0.4,0.2-0.4,0.4v1.5c0,0.2,0.2,0.4,0.4,0.4
		h0.9c0.2,0,0.4-0.2,0.4-0.4v-1.5C28.9,20.7,28.7,20.5,28.5,20.5z M25.5,23.8h-0.9c-0.2,0-0.4,0.2-0.4,0.4v1.5
		c0,0.2,0.2,0.4,0.4,0.4h0.9c0.2,0,0.4-0.2,0.4-0.4v-1.5C26,24,25.8,23.8,25.5,23.8z M28.5,23.8h-0.9c-0.2,0-0.4,0.2-0.4,0.4v1.5
		c0,0.2,0.2,0.4,0.4,0.4h0.9c0.2,0,0.4-0.2,0.4-0.4v-1.5C28.9,24,28.7,23.8,28.5,23.8z M25.5,27.2h-0.9c-0.2,0-0.4,0.2-0.4,0.4v1.5
		c0,0.2,0.2,0.4,0.4,0.4h0.9c0.2,0,0.4-0.2,0.4-0.4v-1.5C26,27.3,25.8,27.2,25.5,27.2z M28.5,27.2h-0.9c-0.2,0-0.4,0.2-0.4,0.4v1.5
		c0,0.2,0.2,0.4,0.4,0.4h0.9c0.2,0,0.4-0.2,0.4-0.4v-1.5C28.9,27.3,28.7,27.2,28.5,27.2z"/>
</g>
</svg>
