<?xml version="1.0" encoding="utf-8"?>
<!-- Generator: Adobe Illustrator 23.1.0, SVG Export Plug-In . SVG Version: 6.00 Build 0)  -->
<svg version="1.1" id="Lager_1" xmlns="http://www.w3.org/2000/svg" xmlns:xlink="http://www.w3.org/1999/xlink" x="0px" y="0px"
	 viewBox="0 0 498.4 384.4" style="enable-background:new 0 0 498.4 384.4;" xml:space="preserve">
<style type="text/css">
	.st0{fill:none;stroke:#000000;stroke-width:12;stroke-miterlimit:10;}
	.st1{display:none;}
</style>
<path class="st0" d="M259.5,384.4c0,0.6-5.9-270.9,112.3-284.4"/>
<path class="st0" d="M247.6,384.4c-1-40.4,7.1-95.8-26.3-157.8"/>
<path d="M286.5,175.3C450.3,219.7,426.4,13,498.4,0c0,0-290.5,11.5-218,167.3c2.3,4.7,18.6-94.4,106.4-109.9
	C386.8,57.4,311.4,85.7,286.5,175.3"/>
<path class="st1" d="M128.7,112.1c46.8,33.5,111.9,119.8,101.1,123.5C64,291.4,91.8,71,19.8,59.6c0,0,239.6-40.1,216.3,166.1
	c-0.2,1.4-61.9-107.2-103.9-114.2"/>
<path d="M0,77.7c88.1,54.8,79.8,194.5,231.4,154.5c0,0-9-21.1-54.1-66.4c-46.5-46.6-68.7-49.6-68.7-49.6
	c68.9,6.6,125.4,109.5,125.7,104C242.1,19.2,0,77.7,0,77.7z"/>
</svg>
