<?xml version="1.0" encoding="utf-8"?>
<!-- Generator: Adobe Illustrator 23.1.0, SVG Export Plug-In . SVG Version: 6.00 Build 0)  -->
<svg version="1.1" id="Layer_1" xmlns="http://www.w3.org/2000/svg" xmlns:xlink="http://www.w3.org/1999/xlink" x="0px" y="0px"
	 viewBox="0 0 103.3 99.4" style="enable-background:new 0 0 103.3 99.4;" xml:space="preserve">
<title>v</title>
<path d="M83.4,3.4c-5.8,2.9-7.3,4.1-12.4,8.1c-0.9,0.7-1.8,1.4-2.8,2.1c-2.2,1.7-4.8,3.8-8,6.2L47.5,15l-4.8-1.8L7.7,0.2l0,0
	C5.6-0.4,3.6,0.7,3,2.7C2.6,4,2.9,5.5,4,6.5l29.4,34.2c-3.2,2.4-6.6,5.1-10.2,7.9c-2,1.6-3.8,3.3-5.5,5.2L3.1,47.3
	c-1.4-0.6-2.9,0-3.5,1.4c-0.4,1-0.2,2.1,0.5,2.9c0,0.1,7.5,9.7,9.8,12.7c-1.1,2-2.1,4.1-2.8,5.8c-0.4,1-0.8,1.9-1.1,2.6l0,0
	c-0.5,2.9,1.5,5.6,4.4,6c0.1,0,0.2,0,0.3,0l0,0c0.8-0.1,1.8-0.2,2.8-0.4c1.9-0.3,4.1-0.7,6.4-1.3c2.4,3.1,9.8,12.7,9.9,12.7
	c0.8,1.2,2.5,1.6,3.7,0.8c0.9-0.6,1.4-1.6,1.2-2.7L32,72.4c2.3-1.2,4.4-2.5,6.4-4.1c3.6-2.8,7-5.4,10.2-7.9l25.7,37
	c1,1.8,3.3,2.4,5.1,1.4c1.2-0.7,2-2,1.9-3.4l0-0.1l-3.8-37.2L77,53.2l-1.4-13.5c3.1-2.4,5.7-4.4,8-6.1c0.9-0.7,1.9-1.4,2.8-2.1
	c5.1-3.9,6.7-5.1,11-10c3.8-4.5,8.6-12,4.3-17.7C97.2-1.9,88.7,0.8,83.4,3.4z"/>
</svg>
