<?xml version="1.0" encoding="utf-8"?>
<!-- Generator: Adobe Illustrator 23.1.0, SVG Export Plug-In . SVG Version: 6.00 Build 0)  -->
<svg version="1.1" xmlns="http://www.w3.org/2000/svg" xmlns:xlink="http://www.w3.org/1999/xlink" x="0px" y="0px"
	 viewBox="0 0 49.8 47.9" style="enable-background:new 0 0 49.8 47.9;" xml:space="preserve">
<style type="text/css">
	.st0{display:none;}
	.st1{display:inline;}
	.st2{fill:none;stroke:#333333;stroke-width:2;stroke-linecap:round;stroke-linejoin:round;}
	.st3{fill:none;stroke:#000000;stroke-width:3;stroke-miterlimit:10;}
</style>
<g id="Lager_1" class="st0">
	<title>Asset 16</title>
	<g id="Layer_2" class="st1">
		<g id="Layer_2-2">
			<path class="st2" d="M24.9,39.4h-13c-0.6,0-1.1-0.9-0.8-1.6L23.8,1.8c0.2-0.6,0.9-1,1.5-0.7c0.4,0.1,0.6,0.4,0.7,0.7l12.7,36
				c0.2,0.8-0.2,1.6-0.8,1.6L24.9,39.4L24.9,39.4z"/>
			<line class="st2" x1="25" y1="39.9" x2="25" y2="46.9"/>
			<path class="st2" d="M35.7,29.1l3.6-10.7c0.1-0.4,0.6-0.6,1-0.5c0.2,0.1,0.4,0.2,0.5,0.5l8.1,24.1c0.2,0.5-0.1,1-0.5,1H31.7
				c-0.4,0,0.7-3.7,0.8-4.1"/>
			<line class="st2" x1="40" y1="43.9" x2="40" y2="46.9"/>
			<path class="st2" d="M14.1,29.1l-3.6-10.7c-0.1-0.4-0.5-0.6-0.9-0.5c-0.2,0.1-0.4,0.3-0.5,0.5L1,42.5c-0.1,0.5,0.1,1,0.5,1h16.6
				c0.4,0-0.7-3.7-0.9-4.1"/>
			<line class="st2" x1="10" y1="43.9" x2="10" y2="46.9"/>
		</g>
	</g>
</g>
<g id="Lager_2">
	<path d="M-0.1,42.9L9.2,19c0.2-0.4,0.7-0.4,0.9,0l8.6,23.8c0.1,0.3-0.1,0.6-0.4,0.6L0.4,43.5C0,43.5-0.2,43.2-0.1,42.9z M9.9,39.6
		l7.6,0l-4-11.1L9.4,38.9C9.3,39.2,9.6,39.6,9.9,39.6z"/>
	<path d="M11.4,38.6l27-0.1c0.3,0,0.5-0.3,0.4-0.6L25.9,2c-0.1-0.4-0.7-0.4-0.9,0L11,38C10.9,38.2,11.1,38.6,11.4,38.6z"/>
	<path d="M31.1,42.9L40.4,19c0.2-0.4,0.7-0.4,0.9,0l8.6,23.8c0.1,0.3-0.1,0.6-0.4,0.6l-17.9,0.1C31.3,43.5,31,43.2,31.1,42.9z
		 M32.5,39.5l7.3,0c0.3,0,0.6-0.3,0.5-0.7l-3.6-10.1L32.5,39.5z"/>
	<line class="st3" x1="24.9" y1="37.9" x2="24.9" y2="43"/>
	<line class="st3" x1="9.2" y1="43" x2="9.2" y2="46.5"/>
	<line class="st3" x1="40.6" y1="41.6" x2="40.6" y2="46.6"/>
</g>
</svg>
