<?xml version="1.0" encoding="utf-8"?>
<!-- Generator: Adobe Illustrator 23.1.0, SVG Export Plug-In . SVG Version: 6.00 Build 0)  -->
<svg version="1.1" id="Lager_1" xmlns="http://www.w3.org/2000/svg" xmlns:xlink="http://www.w3.org/1999/xlink" x="0px" y="0px"
	 viewBox="0 0 25 23.4" style="enable-background:new 0 0 25 23.4;" xml:space="preserve">
<path d="M3,23.2V11.4c0-0.1-0.1-0.2-0.2-0.2H0.6c-0.2,0-0.3-0.3-0.2-0.4L12.3,0.4c0.1-0.1,0.2-0.1,0.3,0l11.9,10.1
	c0.2,0.1,0.1,0.4-0.2,0.4h-2.1c-0.1,0-0.2,0.1-0.2,0.2v12c0,0.1-0.1,0.2-0.2,0.2h-9.5c-0.1,0-0.2-0.1-0.2-0.2v-8.5
	c0-0.1-0.1-0.2-0.2-0.2H7.2c-0.1,0-0.2,0.1-0.2,0.2v8.5c0,0.2-0.1,0.3-0.2,0.3H3.3C3.1,23.4,3,23.3,3,23.2z M18.8,12.4h-3.5
	c-0.1,0-0.2,0.1-0.2,0.2v5.5c0,0.1,0.1,0.2,0.2,0.2h3.5c0.1,0,0.2-0.1,0.2-0.2v-5.5C19,12.5,18.9,12.4,18.8,12.4z"/>
<path d="M17,3.8V2.1c0-0.2,0.1-0.3,0.3-0.3h3.4c0.2,0,0.3,0.1,0.3,0.3v4.6c0,0.2-0.3,0.4-0.5,0.2L17.1,4C17,4,17,3.9,17,3.8z"/>
</svg>
